<svg xmlns="http://www.w3.org/2000/svg" width="100" height="100" viewBox="0 0 29 28">
    <path fill="#4167D9" fill-rule="nonzero" d="M26.41 17.795c1.628 1.644 2.138 3.162 1.531 4.553-.607 1.39-1.312 2.485-2.113 3.283-.753.75-1.865 1.458-3.335 2.123-1.47.665-3.2-.018-5.192-2.05l-3.207-3.12-3.753 3.628C8.69 27.832 7.16 28.34 5.75 27.736c-1.41-.605-2.514-1.306-3.316-2.105-.729-.75-1.421-1.856-2.077-3.32-.656-1.463.036-3.198 2.077-5.206l2.478-2.576c.097-.097.194-.187.291-.272a5.27 5.27 0 0 0 .255-.236l-3.68-3.81C.15 8.568-.36 7.044.248 5.642.855 4.236 1.559 3.148 2.36 2.374 3.114 1.625 4.225.924 5.695.27c1.47-.653 3.2.013 5.193 1.996l3.206 3.12 3.79-3.592C19.512.15 21.03-.364 22.439.252c1.409.617 2.514 1.325 3.316 2.123.729.75 1.42 1.856 2.077 3.32.656 1.463-.025 3.198-2.04 5.206l-2.515 2.54-.292.29a2.733 2.733 0 0 1-.291.254l3.717 3.81zM18.395 2.23l-3.79 3.664 1.932 1.887c.364.338.716.61 1.056.816.34.206.693.309 1.057.309.316 0 .656-.091 1.02-.273.365-.181.766-.49 1.203-.925.049-.024.31-.278.783-.762l.71-.725c.778-.774 1.264-1.597 1.458-2.467.195-.871-.206-1.657-1.202-2.359-.729-.484-1.47-.598-2.223-.344a5.59 5.59 0 0 0-2.004 1.179zm-8.6 23.51l3.79-3.628-1.931-1.887a6.569 6.569 0 0 0-1.057-.816 2.016 2.016 0 0 0-1.057-.308c-.315 0-.655.09-1.02.272-.364.181-.765.478-1.202.889-.049.048-.31.314-.784.798l-.71.726c-.778.774-1.264 1.596-1.458 2.467-.194.87.219 1.657 1.24 2.358.704.484 1.432.599 2.185.345a5.347 5.347 0 0 0 2.005-1.216zm12.171-3.483c.777.774 1.597 1.264 2.46 1.47.862.205 1.658-.2 2.386-1.216.462-.701.571-1.427.328-2.177a5.123 5.123 0 0 0-1.202-1.995l-3.826-3.882c-1.385.991-2.751 1.378-4.1 1.16-1.348-.217-2.58-.894-3.698-2.031l-8.09-7.873c-.777-.75-1.597-1.234-2.46-1.452-.861-.217-1.657.182-2.386 1.198-.461.725-.57 1.463-.328 2.213.243.75.644 1.403 1.203 1.96l3.826 3.918c1.384-.992 2.75-1.38 4.1-1.161 1.347.217 2.58.882 3.698 1.995l8.09 7.873z"/>
</svg>
